<svg width="20" height="20" viewBox="0 0 20 20" fill="none" xmlns="http://www.w3.org/2000/svg">
<path d="M4.58334 3.33333V1.875M7.91667 3.33333V1.875M11.25 3.33333V1.875M1.66667 10H14.5917M14.825 8.725V14.825C14.825 15.7555 14.4554 16.6478 13.7974 17.3058C13.1395 17.9637 12.2471 18.3333 11.3167 18.3333H5.175C3.24167 18.3333 1.66667 16.7583 1.66667 14.825V8.725C1.66667 7.79453 2.0363 6.90217 2.69424 6.24423C3.35218 5.58629 4.24454 5.21667 5.175 5.21667H11.3167C13.25 5.21667 14.825 6.79167 14.825 8.725ZM18.3333 10.9667C18.3333 12.9 16.7583 14.475 14.825 14.475V7.45833C15.2857 7.45833 15.7419 7.54908 16.1676 7.72539C16.5932 7.9017 16.98 8.16012 17.3058 8.4859C17.6315 8.81168 17.89 9.19844 18.0663 9.62409C18.2426 10.0497 18.3333 10.5059 18.3333 10.9667Z" stroke="black" stroke-linecap="round" stroke-linejoin="round"/>
</svg>
