<svg width="30" height="30" viewBox="0 0 30 30" fill="none" xmlns="http://www.w3.org/2000/svg">
<path d="M21.25 26.5625H8.75C4.1875 26.5625 1.5625 23.9375 1.5625 19.375V10.625C1.5625 6.0625 4.1875 3.4375 8.75 3.4375H21.25C25.8125 3.4375 28.4375 6.0625 28.4375 10.625V19.375C28.4375 23.9375 25.8125 26.5625 21.25 26.5625ZM8.75 5.3125C5.175 5.3125 3.4375 7.05 3.4375 10.625V19.375C3.4375 22.95 5.175 24.6875 8.75 24.6875H21.25C24.825 24.6875 26.5625 22.95 26.5625 19.375V10.625C26.5625 7.05 24.825 5.3125 21.25 5.3125H8.75Z" fill="#282626" stroke="#282626" stroke-width="0.5"/>
<path d="M14.9987 16.085C13.9487 16.085 12.8862 15.76 12.0737 15.0975L8.16122 11.9725C7.97928 11.8145 7.86535 11.5924 7.8432 11.3525C7.82104 11.1126 7.89237 10.8733 8.0423 10.6847C8.19223 10.4961 8.40919 10.3726 8.64793 10.3401C8.88667 10.3075 9.12877 10.3684 9.32372 10.51L13.2362 13.635C14.1862 14.3975 15.7987 14.3975 16.7487 13.635L20.6612 10.51C21.0612 10.185 21.6612 10.2475 21.9737 10.66C22.2987 11.06 22.2362 11.66 21.8237 11.9725L17.9112 15.0975C17.1112 15.76 16.0487 16.085 14.9987 16.085Z" fill="#282626" stroke="#282626" stroke-width="0.5"/>
</svg>
