<svg width="13" height="11" viewBox="0 0 13 11" fill="none" xmlns="http://www.w3.org/2000/svg">
<path d="M11.7554 4.28901L8.38554 3.82745L6.87913 0.94922C6.83799 0.870416 6.7703 0.806622 6.68668 0.767845C6.47698 0.670278 6.22215 0.751584 6.1173 0.94922L4.6109 3.82745L1.24106 4.28901C1.14815 4.30152 1.06321 4.3428 0.998177 4.40534C0.919554 4.4815 0.87623 4.58397 0.877723 4.69022C0.879216 4.79647 0.925405 4.89781 1.00614 4.97198L3.44426 7.21227L2.86824 10.3757C2.85474 10.4493 2.86338 10.525 2.89318 10.5942C2.92299 10.6634 2.97278 10.7233 3.03689 10.7672C3.10101 10.8111 3.17689 10.8371 3.25593 10.8425C3.33497 10.8478 3.414 10.8321 3.48408 10.7972L6.49822 9.30371L9.51235 10.7972C9.59464 10.8385 9.6902 10.8523 9.78178 10.8373C10.0127 10.7997 10.168 10.5933 10.1282 10.3757L9.55217 7.21227L11.9903 4.97198C12.0567 4.91069 12.1005 4.83064 12.1137 4.74307C12.1496 4.52417 11.9876 4.32154 11.7554 4.28901Z" fill="#F4D150"/>
</svg>
