<svg width="27" height="27" viewBox="0 0 27 27" fill="none" xmlns="http://www.w3.org/2000/svg">
<path fill-rule="evenodd" clip-rule="evenodd" d="M13.3333 1.99994C7.08399 1.99994 1.99999 7.08394 1.99999 13.3333C1.99999 19.5826 7.08399 24.6666 13.3333 24.6666C19.5827 24.6666 24.6667 19.5826 24.6667 13.3333C24.6667 7.08394 19.5827 1.99994 13.3333 1.99994ZM13.3333 26.6667C5.98133 26.6667 0 20.6853 0 13.3333C0 5.98133 5.98133 0 13.3333 0C20.6853 0 26.6667 5.98133 26.6667 13.3333C26.6667 20.6853 20.6853 26.6667 13.3333 26.6667Z" fill="#282626"/>
<path fill-rule="evenodd" clip-rule="evenodd" d="M17.9083 18.2561C17.7336 18.2561 17.5576 18.2108 17.3963 18.1161L12.3696 15.1175C12.0683 14.9361 11.8816 14.6095 11.8816 14.2575V7.79346C11.8816 7.24146 12.3296 6.79346 12.8816 6.79346C13.4349 6.79346 13.8816 7.24146 13.8816 7.79346V13.6895L18.4216 16.3961C18.8949 16.6801 19.0509 17.2935 18.7683 17.7681C18.5803 18.0815 18.2483 18.2561 17.9083 18.2561Z" fill="#282626"/>
</svg>
